<?xml version="1.0" standalone="no"?><!DOCTYPE svg PUBLIC "-//W3C//DTD SVG 1.1//EN" "http://www.w3.org/Graphics/SVG/1.1/DTD/svg11.dtd"><svg t="1535983759444" class="icon" style="" viewBox="0 0 1024 1024" version="1.1" xmlns="http://www.w3.org/2000/svg" p-id="1569" xmlns:xlink="http://www.w3.org/1999/xlink" width="200" height="200"><defs><style type="text/css"></style></defs><path d="M648.533333 486.4H324.266667c-13.653333 0-25.6 5.12-25.6 11.946667v8.533333c0 6.826667 11.946667 13.653333 25.6 13.653333h324.266666c13.653333 0 25.6-5.12 25.6-13.653333v-8.533333c0-6.826667-11.946667-11.946667-25.6-11.946667z m25.6-122.88c0-6.826667-11.946667-11.946667-25.6-11.946667H324.266667c-13.653333 0-25.6 5.12-25.6 11.946667v8.533333c0 6.826667 11.946667 13.653333 25.6 13.653334h324.266666c13.653333 0 25.6-5.12 25.6-13.653334v-8.533333z m-477.866666 464.213333v-665.6h580.266666V529.066667c18.773333 5.12 35.84 11.946667 51.2 20.48V196.266667c0-47.786667-37.546667-85.333333-85.333333-85.333334h-512c-47.786667 0-85.333333 37.546667-85.333333 85.333334v597.333333c0 47.786667 37.546667 85.333333 85.333333 85.333333h295.253333c-10.24-15.36-18.773333-32.426667-25.6-51.2H196.266667z m315.733333-204.8H324.266667c-13.653333 0-25.6 5.12-25.6 11.946667v8.533333c0 6.826667 11.946667 13.653333 25.6 13.653334h187.733333c13.653333 0 25.6-5.12 25.6-13.653334v-8.533333c0-6.826667-11.946667-11.946667-25.6-11.946667z m213.333333-34.133333c-93.866667 0-170.666667 76.8-170.666666 170.666667s76.8 170.666667 170.666666 170.666666 170.666667-76.8 170.666667-170.666666-76.8-170.666667-170.666667-170.666667z m0 319.146667c-81.92 0-148.48-66.56-148.48-148.48 0-81.92 66.56-148.48 148.48-148.48 81.92 0 148.48 66.56 148.48 148.48 0 81.92-66.56 148.48-148.48 148.48z" fill="#FF8C00" p-id="1570"></path><path d="M802.133333 674.133333l-54.613333 83.626667h47.786667v15.36h-59.733334v23.893333h59.733334v15.36h-59.733334v49.493334h-20.48v-49.493334h-58.026666v-15.36h58.026666v-23.893333h-58.026666v-15.36h47.786666L648.533333 674.133333h23.893334l52.906666 81.92 52.906667-81.92H802.133333z" fill="#FF8C00" p-id="1571"></path></svg>